<?xml version="1.0" encoding="UTF-8"?>
<svg width="95px" height="46px" viewBox="0 0 95 46" version="1.1" xmlns="http://www.w3.org/2000/svg" xmlns:xlink="http://www.w3.org/1999/xlink">
    <g stroke="none" stroke-width="1" fill="none" fill-rule="evenodd" opacity="0.498697917">
        <g transform="translate(-753.000000, -85.000000)" fill="#FFFFFF">
            <g transform="translate(721.000000, 54.000000)">
                <g transform="translate(32.842697, 30.983607)">
                    <polyline points="50.7226945 4.24723279 46.5854414 8.35778361 42.4480101 4.24723279 46.5854414 0.136681967 50.7226945 4.24723279"></polyline>
                    <polyline points="50.7226945 12.4685115 46.5854414 16.5790623 42.4480101 12.4685115 46.5854414 8.35796066 50.7226945 12.4685115"></polyline>
                    <polyline points="42.4480101 4.24740984 38.3105788 8.3581377 34.1731475 4.24740984 38.3105788 0.136681967 42.4480101 4.24740984"></polyline>
                    <polyline points="58.9972007 4.24740984 54.8599476 8.3581377 50.7223381 4.24740984 54.8599476 0.136681967 58.9972007 4.24740984"></polyline>
                    <polyline points="7.8913612 45.147541 4.45036275 45.147541 4.45036275 33.0212656 0 33.0212656 0 30.0912787 12.341724 30.0912787 12.341724 33.0212656 7.8913612 33.0212656 7.8913612 45.147541"></polyline>
                    <polygon points="22.6388793 45.147541 26.1001934 45.147541 26.1001934 30.0914557 22.6388793 30.0914557"></polygon>
                    <polyline points="87.1836631 42.1763016 93.1699917 42.1763016 93.1699917 45.147541 83.722349 45.147541 83.722349 30.0912787 87.1836631 30.0912787 87.1836631 42.1763016"></polyline>
                    <path d="M40.9819013,42.1966623 L43.1282261,42.1966623 C46.0160701,42.1966623 47.9415965,40.4066951 47.9415965,37.5579738 C47.9415965,34.851777 45.9957545,33.0212656 43.2102013,33.0212656 L40.9819013,33.0212656 L40.9819013,42.1966623 Z M37.6230563,30.0912787 L43.2306951,30.0912787 C47.3679482,30.0912787 51.4845293,32.2675672 51.4845293,37.5785115 C51.4845293,42.584223 47.4497452,45.1471869 43.4354549,45.1471869 L37.6230563,45.1473639 L37.6230563,30.0912787 L37.6230563,30.0912787 Z"></path>
                    <path d="M64.1249281,39.5019738 L66.4077595,33.613318 L68.669206,39.5019738 L64.1249281,39.5019738 Z M70.6941718,45.147541 L74.4988907,45.147541 L68.255944,30.0912787 L64.6825378,30.0912787 L58.3782879,45.147541 L62.0801813,45.147541 L63.1973608,42.1766557 L69.5869719,42.1766557 L70.6941718,45.147541 L70.6941718,45.147541 Z"></path>
                </g>
            </g>
        </g>
    </g>
</svg>
